<svg xmlns="http://www.w3.org/2000/svg" xmlns:xlink="http://www.w3.org/1999/xlink" width="1200" zoomAndPan="magnify" viewBox="0 0 900 899.99999" height="1200" preserveAspectRatio="xMidYMid meet" version="1.0"><defs><g/></defs><g fill="#f97316" fill-opacity="1"><g transform="translate(0.0000048, 601.196515)"><g><path d="M 15.90625 0 L 15.90625 -246.6875 L 82.875 -246.6875 L 82.875 -53.96875 L 182.609375 -53.96875 L 182.609375 0 Z M 15.90625 0 "/></g></g></g><g fill="#f97316" fill-opacity="1"><g transform="translate(193.679884, 601.196515)"><g><path d="M 49.625 0 L 3.375 -185.015625 L 69.859375 -185.015625 L 91.0625 -72.265625 L 92.5 -72.265625 L 116.109375 -185.015625 L 180.671875 -185.015625 L 205.25 -73.234375 L 206.6875 -73.234375 L 226.921875 -185.015625 L 293.421875 -185.015625 L 247.15625 0 L 175.375 0 L 149.359375 -99.25 L 147.4375 -99.25 L 121.40625 0 Z M 49.625 0 "/></g></g></g><g fill="#f97316" fill-opacity="1"><g transform="translate(490.462995, 601.196515)"><g><path d="M 137.796875 -258.25 L 58.296875 37.09375 L 1.921875 37.09375 L 81.421875 -258.25 Z M 137.796875 -258.25 "/></g></g></g><g fill="#f97316" fill-opacity="1"><g transform="translate(630.182284, 601.196515)"><g><path d="M 79.984375 0 L 7.703125 0 L 89.140625 -246.6875 L 180.671875 -246.6875 L 262.09375 0 L 189.828125 0 L 135.875 -178.75 L 133.9375 -178.75 Z M 66.484375 -97.328125 L 202.359375 -97.328125 L 202.359375 -47.21875 L 66.484375 -47.21875 Z M 66.484375 -97.328125 "/></g></g></g></svg>